<?xml version="1.0" standalone="no"?><!DOCTYPE svg PUBLIC "-//W3C//DTD SVG 1.1//EN" "http://www.w3.org/Graphics/SVG/1.1/DTD/svg11.dtd"><svg t="1513607074939" class="icon" style="" viewBox="0 0 1024 1024" version="1.1" xmlns="http://www.w3.org/2000/svg" p-id="5353" xmlns:xlink="http://www.w3.org/1999/xlink" width="200" height="200"><defs><style type="text/css"></style></defs><path d="M758.499556 473.884444c-146.659556 0-265.500444 116.679111-265.500445 260.664889 0 144.042667 118.897778 260.778667 265.500445 260.778667S1024 878.592 1024 734.549333c0-143.928889-118.897778-260.664889-265.500444-260.664889z m111.559111 470.584889s-10.581333-6.712889-6.257778-34.816c0 0-29.297778-9.216-53.589333-28.216889 0 0-18.090667-25.656889 0.625777-45.909333 0 0-11.832889-29.354667-67.925333-39.139555 0 0-35.555556-3.697778-47.331556-3.072 0 0-21.219556-23.096889-24.348444-47.957334 0 0-19.911111-19.342222-52.963556-28.501333 0 0-45.511111-15.303111-16.839111-74.695111 0 0 34.929778-62.407111-3.072-66.673778 0 0-18.716444 10.353778-25.6 10.353778 0 0-9.841778-2.673778-8.078222-6.712889 0 0 23.04-60.586667 76.060445-41.585778 0 0 22.414222 9.784889 26.168888 26.908445 0 0 12.288 11.036444 52.565334-15.928889 0 0 42.723556 4.266667 12.231111 25.713777-30.549333 21.390222-37.376 25.031111-1.251556 35.498667 0 0 44.259556 13.482667 34.304-37.944889 0 0 37.376-34.247111 133.973334 83.854222 0 0 13.539556 4.380444-73.557334 10.410667-71.054222 4.892444-22.414222 75.264 11.264 90.567111 0 0-10.638222 20.195556-46.762666 0 0 0-18.773333-13.482667-15.018667-31.232 0 0-26.908444-22.016-55.182222 0.568889 0 0-28.273778 53.304889 42.780444 32.483556 0 0 10.581333 81.408 118.385778 21.447111 0 0 10.581333-13.425778 98.474667 22.072889 0 0 8.135111 36.636444-22.414223 81.351111 0 0-36.807111 55.694222-86.641777 61.155555zM456.248889 415.971556c287.971556 0 488.789333-71.623111 488.789333-159.971556V160.028444C944.981333 71.68 744.163556 0 456.248889 0 168.220444 0 0 71.68 0 160.028444V256c0 88.348444 168.220444 160.028444 456.248889 160.028444z m-59.164445 382.919111c-197.745778-7.224889-313.230222-51.541333-373.987555-110.876445-15.473778 15.189333-23.04 31.288889-23.04 47.957334v128.056888C0 952.376889 168.220444 1024 456.248889 1024c28.785778 0 56.832-0.910222 84.423111-2.275556a350.72 350.72 0 0 1-143.587556-222.833777z m-5.973333-64.284445a346.737778 346.737778 0 0 1 81.976889-222.663111L454.542222 512C221.070222 512 89.486222 464.896 23.04 400.042667c-15.473778 15.132444-23.04 31.288889-23.04 47.957333v128c0 81.408 143.246222 148.536889 391.054222 158.663111v-0.056889z" fill="#666666" p-id="5354"></path></svg>