<?xml version="1.0" standalone="no"?><!DOCTYPE svg PUBLIC "-//W3C//DTD SVG 1.1//EN" "http://www.w3.org/Graphics/SVG/1.1/DTD/svg11.dtd"><svg t="1513606949186" class="icon" style="" viewBox="0 0 1024 1024" version="1.1" xmlns="http://www.w3.org/2000/svg" p-id="4637" xmlns:xlink="http://www.w3.org/1999/xlink" width="200" height="200"><defs><style type="text/css"></style></defs><path d="M1014.4768 418.22208L512.12288 1.00352 9.74848 418.22208c-4.25984 4.25984-8.51968 4.25984-8.51968 8.51968v85.15584c0 25.53856 17.03936 42.57792 42.57792 42.57792h85.15584v383.16032H86.38464c-25.55904 0-42.57792 17.01888-42.57792 42.55744 0 25.55904 17.03936 42.57792 42.57792 42.57792h851.47648c25.53856 0 42.55744-17.01888 42.55744-42.57792 0-25.53856-17.01888-42.55744-42.55744-42.55744h-42.57792v-383.1808h85.13536c25.53856 0 42.57792-17.03936 42.57792-42.57792v-85.15584c0-4.23936-4.25984-4.23936-8.51968-8.4992z m-800.3584 519.39328V554.45504h255.44704v383.16032H214.1184z m596.02944 0H554.7008V554.45504h255.44704v383.16032z m127.71328-468.29568H86.38464v-4.25984L512.12288 111.69792l425.73824 357.62176z" p-id="4638"></path></svg>