<?xml version="1.0" standalone="no"?><!DOCTYPE svg PUBLIC "-//W3C//DTD SVG 1.1//EN" "http://www.w3.org/Graphics/SVG/1.1/DTD/svg11.dtd"><svg t="1513607158240" class="icon" style="" viewBox="0 0 1024 1024" version="1.1" xmlns="http://www.w3.org/2000/svg" p-id="6508" xmlns:xlink="http://www.w3.org/1999/xlink" width="200" height="200"><defs><style type="text/css"></style></defs><path d="M416 128c42.737 0 82.917 16.643 113.137 46.863S576 245.262 576 288s-16.643 82.917-46.863 113.137S458.737 448 416 448s-82.917-16.643-113.137-46.863S256 330.737 256 288s16.643-82.917 46.863-113.137S373.263 128 416 128m0-64c-123.712 0-224 100.288-224 224s100.288 224 224 224 224-100.288 224-224S539.712 64 416 64z" fill="" p-id="6509"></path><path d="M416 512c38.908 0 76.618 7.606 112.083 22.606 34.287 14.502 65.094 35.277 91.564 61.747s47.245 57.276 61.747 91.564C696.394 723.382 704 761.092 704 800c0 6.276-0.203 12.617-0.605 18.848-0.475 7.375-6.576 13.152-13.889 13.152H142.494c-7.313 0-13.414-5.777-13.889-13.152A294.77 294.77 0 0 1 128 800c0-38.908 7.606-76.618 22.606-112.083 14.502-34.287 35.277-65.094 61.747-91.564s57.277-47.245 91.564-61.747C339.382 519.606 377.092 512 416 512m0-64C221.596 448 64 605.596 64 800c0 7.714 0.248 15.371 0.737 22.962C67.382 864.013 101.358 896 142.494 896h547.012c41.136 0 75.113-31.987 77.757-73.038A357.17 357.17 0 0 0 768 800c0-194.404-157.596-352-352-352z" fill="" p-id="6510"></path><path d="M416 128c42.737 0 82.917 16.643 113.137 46.863S576 245.262 576 288s-16.643 82.917-46.863 113.137S458.737 448 416 448s-82.917-16.643-113.137-46.863S256 330.737 256 288s16.643-82.917 46.863-113.137S373.263 128 416 128m0-64c-123.712 0-224 100.288-224 224s100.288 224 224 224 224-100.288 224-224S539.712 64 416 64z" fill="" p-id="6511"></path><path d="M416 512c38.908 0 76.618 7.606 112.083 22.606 34.287 14.502 65.094 35.277 91.564 61.747s47.245 57.276 61.747 91.564C696.394 723.382 704 761.092 704 800c0 6.276-0.203 12.617-0.605 18.848-0.475 7.375-6.576 13.152-13.889 13.152H142.494c-7.313 0-13.414-5.777-13.889-13.152A294.77 294.77 0 0 1 128 800c0-38.908 7.606-76.618 22.606-112.083 14.502-34.287 35.277-65.094 61.747-91.564s57.277-47.245 91.564-61.747C339.382 519.606 377.092 512 416 512m0-64C221.596 448 64 605.596 64 800c0 7.714 0.248 15.371 0.737 22.962C67.382 864.013 101.358 896 142.494 896h547.012c41.136 0 75.113-31.987 77.757-73.038A357.17 357.17 0 0 0 768 800c0-194.404-157.596-352-352-352z" fill="" p-id="6512"></path><path d="M872.657 834.883H814.91c-17.673 0-32-14.327-32-32s14.327-32 32-32h57.747c14.705 0 26.976-11.398 27.936-25.949 0.348-5.286 0.524-10.667 0.524-15.989 0-99.25-59.729-186.708-152.166-222.808 0 0-14.958-3.191-17.898-6.99-2.95-3.811-2.288-19.142-2.288-19.142a32.011 32.011 0 0 1 13.57-30.093c36.699-25.594 59.214-67.57 60.165-112.242 0.803-37.669-13.286-73.429-39.673-100.691-26.354-27.229-61.58-42.46-99.189-42.887-17.672-0.201-31.835-14.689-31.635-32.361 0.199-17.548 14.487-31.637 31.991-31.637 0.123 0 0.246 0 0.37 0.002 54.823 0.623 106.124 22.773 144.451 62.373 38.358 39.632 58.84 91.683 57.671 146.564-0.696 32.665-9.315 65.019-24.926 93.564-6.949 12.707-15.282 24.675-24.773 35.653 37.115 22.028 69.172 51.81 94.205 87.795 35.409 50.9 54.125 110.688 54.125 172.898 0 6.718-0.223 13.513-0.663 20.196-3.17 48.083-43.492 85.744-91.797 85.744z" fill="" p-id="6513"></path></svg>