<?xml version="1.0" standalone="no"?><!DOCTYPE svg PUBLIC "-//W3C//DTD SVG 1.1//EN" "http://www.w3.org/Graphics/SVG/1.1/DTD/svg11.dtd"><svg t="1513607116158" class="icon" style="" viewBox="0 0 1024 1024" version="1.1" xmlns="http://www.w3.org/2000/svg" p-id="6160" xmlns:xlink="http://www.w3.org/1999/xlink" width="200" height="200"><defs><style type="text/css"></style></defs><path d="M892.387914 79.379147H847.466396V68.374266C847.466396 31.209665 815.534739 0 777.468148 0h-18.219804c-36.442609 0-66.029291 29.586682-66.029291 66.029291V79.199149H326.631991V67.832271C326.631991 30.488672 296.323317 0 258.79872 0h-15.694831c-37.344599 0-67.833271 30.308674-67.833272 67.833271v11.364878h-46.905496c-36.622607 0-66.750283 31.391663-66.750283 69.998248v670.030803c0 38.065591 29.225686 67.833271 66.749283 67.833271h243.369386c13.710853 0 24.896733-11.004882 24.896732-24.715734s-11.18588-24.896733-24.896732-24.896733H128.365121c-9.922893 0-16.958818-7.576919-16.958818-18.219804V310.118669h801.187394v171.928153c0 13.709853 11.18488 24.895733 24.895732 24.895732s24.715734-11.18588 24.715735-24.896732V149.376395c0.179998-38.065591-31.931657-69.997248-69.81725-69.997248zM743.010518 66.209289c0-9.199901 7.035924-16.236826 16.056828-16.236826h18.220804c10.28289 0 20.024785 8.659907 20.024785 18.401803v87.136063c0 9.741895-9.560897 18.762798-20.024785 18.762799h-15.875829c-9.921893 0-18.401802-8.659907-18.401803-18.762799V66.209289zM224.703086 68.013269c0-9.921893 8.117913-18.220804 18.220804-18.220804h15.695832c9.921893 0 18.220804 8.117913 18.220804 18.220804v88.219053c0 9.921893-8.117913 18.220804-18.220804 18.220804H242.92289c-9.921893 0-18.219804-8.117913-18.219804-18.220804v-88.219053zM111.587301 260.507202V149.376395c0-9.921893 6.313932-20.024785 16.957818-20.024785h46.725498v27.06071c0 37.344599 30.308674 67.833271 67.833272 67.833271h15.694831c37.344599 0 67.833271-30.488672 67.833271-67.833271v-27.240708h366.76706v26.519716c0 37.885593 30.489672 68.554264 68.01327 68.554263h15.875829c37.704595 0 69.998248-31.390663 70.178246-68.735262v-26.158719h44.921518c10.463888 0 20.385781 9.561897 20.385781 20.024785V260.507202H111.587301zM825.095637 537.974221c-3.787959 0-7.937915 0.179998-12.08687 0.90199-8.298911 1.442984-15.875829 3.968957-22.731756 7.937915-13.169859-12.809862-29.76668-19.844787-48.529479-19.844787-10.643886 0-21.828766 2.344975-33.55464 7.396921-4.329953 1.803981-8.299911 3.787959-12.08787 6.313932-12.808862-9.741895-28.143698-13.890851-41.85455-13.890851-5.231944 0-10.643886 0.539994-16.235826 1.622983-10.102891 2.164977-19.123795 5.051946-27.241707 9.019903-3.607961-9.740895-6.855926-19.663789-10.102892-30.127677-3.607961-11.364878-7.576919-22.911754-11.726874-34.457629-11.725874-32.111655-36.441609-50.513457-66.209288-50.513458-6.313932 0-12.808862 0.90199-18.761799 2.525973-25.076731 6.854926-38.607585 22.009764-44.921517 33.55564-8.117913 13.890851-11.365878 31.029667-9.199901 48.889474 1.081988 9.200901 3.606961 17.499812 5.230943 23.453748l0.540995 1.622983c10.463888 34.45763 20.746777 69.457254 31.029666 104.094882 2.886969 9.922893 6.133934 20.024785 9.020903 30.127676h-2.525972c-12.447866 0-24.895733 2.705971-36.622607 8.118913-32.653649 14.973839-41.673552 39.509576-44.199525 52.498436-2.525973 13.169859-2.705971 39.147579 22.189761 64.946302 3.788959 3.787959 7.757917 7.756917 11.365878 11.18488 6.133934 6.133934 12.08787 11.726874 16.597822 16.958818 47.44649 57.909378 103.011893 115.640758 174.09213 181.850047 15.695831 14.431845 32.834647 21.828766 51.596446 21.828765 8.298911 0 16.77782-1.623983 25.256728-4.329953 16.958818-5.952936 33.736638-11.18488 51.777444-16.596822 7.756917-2.345975 15.153837-4.69095 22.911754-7.035925 7.576919-2.345975 14.612843-4.69095 22.189762-7.035924 18.401802-5.953936 37.524597-12.08787 56.286395-17.67981 24.17474-7.577919 41.313556-23.994742 49.612467-47.989484 35.900614-105.536866 29.405684-214.863692-20.566779-335.014402-12.808862-31.209665-39.509576-50.333459-70.539242-50.333459z m43.659531 368.210045c-3.067967 9.199901-8.299911 13.710853-17.319814 16.597821-26.519715 8.117913-52.679434 16.596822-79.018151 24.534737-25.256729 7.937915-50.694455 15.334835-75.951185 23.994742-3.246965 1.081988-6.313932 1.803981-9.199901 1.803981-6.675928 0-11.726874-2.886969-17.68081-8.299911-60.075355-55.564403-117.444738-113.474781-169.221182-176.798101-9.200901-11.364878-20.386781-21.106773-30.669671-31.389663-14.251847-14.613843-11.725874-28.86569 7.035925-37.344599 5.411942-2.525973 10.824884-3.608961 16.055827-3.608961 8.839905 0 17.499812 3.247965 25.257729 9.381899 4.509952 3.246965 8.117913 7.756917 12.808862 11.364878 4.329953 3.247965 8.839905 5.59294 13.709853 5.59294 2.706971 0 5.412942-0.720992 8.119913-2.344975 8.297911-4.509952 11.544876-12.447866 9.921893-21.468769-1.803981-8.839905-4.69095-17.499812-7.39692-25.978721-17.499812-58.090376-34.818626-116.542748-52.318438-174.814122-1.622983-5.411942-3.246965-10.823884-3.968957-16.236826-1.622983-13.890851 3.247965-24.534736 17.67981-28.503693 2.525973-1.262986 4.149955-1.442984 6.314932-1.442985 10.102891 0 16.055828 8.117913 19.48379 17.499812 8.117913 22.189762 14.432845 44.920517 22.730756 67.110279 10.463888 28.143698 20.386781 56.106397 29.045688 84.611091 1.442984 4.68995 3.607961 9.380899 6.674929 13.529855 3.969957 5.59294 9.381899 8.839905 15.334835 8.839905 2.705971 0 5.411942-0.719992 8.298911-2.163977 9.741895-4.329953 12.447866-12.809862 9.741895-22.36976-2.886969-10.824884-7.396921-21.469769-9.741895-32.473651-3.788959-17.499812 3.246965-26.519715 22.730755-30.128676 2.525973-0.539994 5.051946-0.720992 7.035925-0.720992 11.18588 0 17.319814 6.313932 19.844787 20.565779 2.525973 12.98986 6.133934 25.076731 13.169858 36.442608 3.969957 6.674928 9.380899 9.921893 16.055828 9.921894 2.345975 0 4.69095-0.539994 7.39692-1.442985 9.741895-3.246965 13.349857-11.726874 12.267869-21.829765-0.721992-5.049946-2.344975-9.741895-3.78896-14.612843-3.066967-10.462888-4.509952-20.024785 8.118913-25.256729 5.231944-2.164977 9.921893-3.246965 14.432845-3.246965 6.854926 0 12.98886 2.885969 17.859808 11.18488 6.133934 9.741895 8.839905 20.566779 10.643886 31.932657 1.803981 11.364878 7.396921 18.941797 18.401802 18.941796 0.90199 0 1.803981 0 2.705971-0.179998 13.169859-1.442984 17.67981-10.643886 17.67981-22.911754v-1.623982c0-10.462888-3.066967-23.632746 11.545876-25.977721 1.442984-0.179998 2.886969-0.179998 4.329954-0.179998 11.545876 0 19.844787 7.756917 24.535736 19.122794 40.591564 98.501942 54.302417 197.905874 19.302793 300.376774z" fill="" p-id="6161"></path></svg>