<?xml version="1.0" standalone="no"?><!DOCTYPE svg PUBLIC "-//W3C//DTD SVG 1.1//EN" "http://www.w3.org/Graphics/SVG/1.1/DTD/svg11.dtd"><svg t="1513607196485" class="icon" style="" viewBox="0 0 1024 1024" version="1.1" xmlns="http://www.w3.org/2000/svg" p-id="7184" xmlns:xlink="http://www.w3.org/1999/xlink" width="200" height="200"><defs><style type="text/css"></style></defs><path d="M96.748094 353.661671h830.471345v-113.507052a121.363913 121.363913 0 0 0-35.636068-85.910829c-22.50699-22.232515-53.019516-36.173582-86.757128-36.173583h-10.155594v78.419935a37.74038 37.74038 0 0 1-75.48076 0v-78.454244H304.811953v78.454244a37.74038 37.74038 0 0 1-75.48076 0v-78.454244h-10.430069a120.792089 120.792089 0 0 0-85.956575 36.173582c-22.243951 22.221078-36.196455 52.218962-36.196455 85.945139v113.507052z m830.425599 75.48076H96.748094v397.303274a120.826399 120.826399 0 0 0 36.162146 85.968011 118.653468 118.653468 0 0 0 85.956574 36.127836h585.993738a122.450379 122.450379 0 0 0 122.370323-122.061538V429.153867zM218.878251 42.852486h10.430069v-5.112106a37.74038 37.74038 0 0 1 75.48076 0v5.112106h414.412246v-5.112106a37.74038 37.74038 0 0 1 75.48076 0v5.112106h10.155593c54.632059 0 104.392179 21.672127 139.730898 57.822837 35.899107 36.15071 58.108749 85.144585 58.108749 139.525041v586.245341c0 54.083108-22.209642 103.580189-58.108749 139.730898a196.615944 196.615944 0 0 1-139.730898 57.822837H218.878251a197.427934 197.427934 0 0 1-139.525042-57.822837C43.499848 930.014457 21.267334 880.528813 21.267334 826.445705V240.154619c0-54.334711 22.186769-103.328586 58.085875-139.525042a195.266439 195.266439 0 0 1 139.525042-57.822837z m103.05411 153.637656a22.758593 22.758593 0 1 1 45.517186 0 99.977698 99.977698 0 0 1-29.471806 70.688876 98.776867 98.776867 0 0 1-70.666002 29.151584c-28.087992 0-52.996643-10.727417-71.180644-29.151584a100.080626 100.080626 0 0 1-29.494679-70.688876 22.770029 22.770029 0 1 1 45.540058 0 55.615596 55.615596 0 0 0 16.011071 38.540934 54.895098 54.895098 0 0 0 39.112757 16.354165c14.993224 0 28.591197-6.404428 39.089885-16.308419a55.066645 55.066645 0 0 0 15.542174-38.58668z m490.144609 0a22.632792 22.632792 0 1 1 45.265583 0 100.057753 100.057753 0 0 1-29.448933 70.688876 98.788304 98.788304 0 0 1-70.688875 29.151584c-27.824953 0-52.97377-10.727417-71.180644-29.151584a100.057753 100.057753 0 0 1-29.46037-70.688876 22.655665 22.655665 0 0 1 22.998759-22.781465c12.328524 0 22.232515 9.9383 22.232515 22.781465a55.729961 55.729961 0 0 0 55.398303 54.895099c14.993224 0 28.659816-6.404428 39.089885-16.308419a55.272502 55.272502 0 0 0 15.793777-38.58668z" fill="#2c2c2c" p-id="7185"></path><path d="M566.089748 724.969828h-108.177654a22.689974 22.689974 0 0 0-22.484117 22.758593v108.15478a22.689974 22.689974 0 0 0 22.484117 22.758593h108.177654a23.15887 23.15887 0 0 0 23.033068-22.758593v-108.15478a23.15887 23.15887 0 0 0-23.033068-22.758593z m-22.518427 108.143344h-63.163673v-62.900634h63.163673zM324.608497 483.751617h-108.15478c-12.305651 0-22.758593 9.903991-22.758592 22.243951v108.41782a22.689974 22.689974 0 0 0 22.758592 22.484117h108.15478a22.689974 22.689974 0 0 0 22.758593-22.484117v-108.41782c0-12.339961-10.452942-22.243951-22.758593-22.243951z m-22.484117 107.628702H238.937835v-62.626158h63.186545zM566.089748 483.751617h-108.177654a22.232515 22.232515 0 0 0-22.484117 22.243951v108.41782a22.289697 22.289697 0 0 0 22.484117 22.484117h108.177654a22.747156 22.747156 0 0 0 23.033068-22.484117v-108.41782c-0.011436-12.339961-10.464378-22.243951-23.033068-22.243951z m-22.518427 107.628702h-63.163673v-62.626158h63.163673zM808.097076 483.751617h-108.646549a22.381189 22.381189 0 0 0-22.449808 22.243951v108.41782a22.426935 22.426935 0 0 0 22.449808 22.484117h108.646549a22.221078 22.221078 0 0 0 22.209641-22.484117v-108.41782a22.175332 22.175332 0 0 0-22.209641-22.243951z m-23.033069 107.628702h-63.197982v-62.626158h63.175109zM324.608497 724.969828h-108.15478a23.101687 23.101687 0 0 0-22.758592 22.758593v108.15478a23.101687 23.101687 0 0 0 22.758592 22.758593h108.15478a23.101687 23.101687 0 0 0 22.758593-22.758593v-108.15478a23.101687 23.101687 0 0 0-22.758593-22.758593z m-22.484117 108.143344H238.937835v-62.900634h63.186545z" fill="#2c2c2c" p-id="7186"></path></svg>